<?xml version="1.0" encoding="utf-8"?>
<!-- Generator: Adobe Illustrator 22.0.1, SVG Export Plug-In . SVG Version: 6.00 Build 0)  -->
<svg version="1.1" id="Layer_1" xmlns="http://www.w3.org/2000/svg" xmlns:xlink="http://www.w3.org/1999/xlink" x="0px" y="0px"
	 viewBox="0 0 2500 2500" style="enable-background:new 0 0 2500 2500;" xml:space="preserve">
<style type="text/css">
	.st0{fill:#563D7C;}
	.st1{fill:#FFFFFF;}
</style>
<path class="st0" d="M315,1943.9c0,133.2,108,241.1,241.1,241.1h1387.8c133.2,0,241.1-108,241.1-241.1V556.1
	c0-133.2-108-241.1-241.1-241.1H556.1C422.9,315,315,423,315,556.1V1943.9L315,1943.9z"/>
<path class="st1" d="M1069.8,1142.2V877.4h233.1c22.2,0,43.6,1.8,64.2,5.6c20.6,3.7,38.9,10.3,54.7,19.8
	c15.9,9.5,28.5,22.7,38.1,39.6c9.5,16.9,14.3,38.6,14.3,65c0,47.6-14.3,81.9-42.8,103.1c-28.5,21.1-65,31.7-109.4,31.7H1069.8
	L1069.8,1142.2z M820.9,683.9v1132.2h548.7c50.7,0,100.2-6.3,148.3-19c48.1-12.7,90.9-32.2,128.4-58.7
	c37.5-26.4,67.4-60.5,89.6-102.3c22.2-41.8,33.3-91.2,33.3-148.3c0-70.8-17.2-131.4-51.5-181.6c-34.4-50.2-86.4-85.4-156.2-105.5
	c50.7-24.3,89.1-55.5,115-93.6c25.9-38.1,38.8-85.6,38.8-142.7c0-52.9-8.7-97.3-26.2-133.2c-17.4-35.9-42-64.7-73.7-86.4
	c-31.7-21.7-69.8-37.3-114.2-46.8c-44.4-9.5-93.6-14.3-147.5-14.3H820.9L820.9,683.9z M1069.8,1622.6v-310.8H1341
	c53.9,0,97.3,12.4,130,37.3c32.8,24.8,49.2,66.3,49.2,124.5c0,29.6-5,53.9-15.1,72.9s-23.5,34.1-40.4,45.2
	c-16.9,11.1-36.5,19-58.7,23.8c-22.2,4.7-45.5,7.1-69.8,7.1H1069.8L1069.8,1622.6z"/>
</svg>
