<?xml version="1.0" encoding="utf-8"?>
<!-- Generator: Adobe Illustrator 22.0.1, SVG Export Plug-In . SVG Version: 6.00 Build 0)  -->
<svg version="1.1" id="Layer_1" xmlns="http://www.w3.org/2000/svg" xmlns:xlink="http://www.w3.org/1999/xlink" x="0px" y="0px"
	 viewBox="0 0 250 250" style="enable-background:new 0 0 250 250;" xml:space="preserve">
<style type="text/css">
	.st0{fill:#292929;}
	.st1{fill:#FFFFFF;}
</style>
<g>
	<g>
		<g>
			<g>
				<circle class="st0" cx="125" cy="125" r="86.5"/>
			</g>
		</g>
	</g>
</g>
<g>
	<path class="st1" d="M93.4,127.7c0.2,10.1,6.6,14.3,14.1,14.3c5.4,0,8.6-0.9,11.4-2.1l1.3,5.4c-2.6,1.2-7.1,2.5-13.7,2.5
		c-12.7,0-20.2-8.3-20.2-20.7c0-12.4,7.3-22.2,19.3-22.2c13.4,0,17,11.8,17,19.4c0,1.5-0.2,2.7-0.3,3.5H93.4z M115.4,122.4
		c0.1-4.8-2-12.2-10.4-12.2c-7.6,0-10.9,7-11.5,12.2H115.4z"/>
	<path class="st1" d="M135.1,105.8l5.9,8.8c1.5,2.3,2.8,4.4,4.2,6.7h0.3c1.4-2.5,2.7-4.6,4.1-6.8l5.8-8.8h8.1l-14,19.9l14.5,21.3
		h-8.5l-6-9.3c-1.6-2.4-3-4.7-4.4-7.1h-0.2c-1.4,2.5-2.8,4.7-4.3,7.1l-5.9,9.3h-8.2l14.6-21l-13.9-20.1H135.1z"/>
</g>
</svg>
