<?xml version="1.0" encoding="utf-8"?>
<!-- Generator: Adobe Illustrator 22.0.1, SVG Export Plug-In . SVG Version: 6.00 Build 0)  -->
<svg version="1.1" id="GraphQL_Logo" xmlns="http://www.w3.org/2000/svg" xmlns:xlink="http://www.w3.org/1999/xlink" x="0px"
	 y="0px" viewBox="0 0 400 400" style="enable-background:new 0 0 400 400;" xml:space="preserve">
<style type="text/css">
	.st0{fill:#E535AB;}
</style>
<g>
	<g>
		<g>
			<rect x="16.3" y="161.2" transform="matrix(0.5 -0.866 0.866 0.5 -73.2262 208.9286)" class="st0" width="256" height="13.3"/>
		</g>
	</g>
	<g>
		<g>
			<rect x="71.9" y="257.7" class="st0" width="256" height="13.3"/>
		</g>
	</g>
	<g>
		<g>
			
				<rect x="137.7" y="222.5" transform="matrix(0.5 -0.866 0.866 0.5 -184.507 273.2108)" class="st0" width="13.3" height="147.9"/>
		</g>
	</g>
	<g>
		<g>
			<rect x="249" y="29.7" transform="matrix(0.5 -0.866 0.866 0.5 38.0121 273.2035)" class="st0" width="13.3" height="147.9"/>
		</g>
	</g>
	<g>
		<g>
			<rect x="70.5" y="97" transform="matrix(0.866 -0.5 0.5 0.866 -32.4709 86.0827)" class="st0" width="147.9" height="13.3"/>
		</g>
	</g>
	<g>
		<g>
			<rect x="249.1" y="39.9" transform="matrix(0.866 -0.5 0.5 0.866 -49.6844 150.3469)" class="st0" width="13.3" height="256"/>
		</g>
	</g>
	<g>
		<g>
			<rect x="82.1" y="126.1" class="st0" width="13.3" height="147.9"/>
		</g>
	</g>
	<g>
		<g>
			<rect x="304.6" y="126.1" class="st0" width="13.3" height="147.9"/>
		</g>
	</g>
	<g>
		<g>
			
				<rect x="191.3" y="290.5" transform="matrix(0.866 -0.5 0.5 0.866 -113.9172 167.5094)" class="st0" width="128.6" height="11.6"/>
		</g>
	</g>
	<path class="st0" d="M335.5,278.3c-7.7,13.3-24.8,17.9-38.1,10.2c-13.3-7.7-17.9-24.8-10.2-38.1c7.7-13.3,24.8-17.9,38.1-10.2
		C338.7,247.9,343.2,264.9,335.5,278.3"/>
	<path class="st0" d="M112.8,149.6c-7.7,13.3-24.8,17.9-38.1,10.2c-13.3-7.7-17.9-24.8-10.2-38.1s24.8-17.9,38.1-10.2
		C115.9,119.3,120.5,136.3,112.8,149.6"/>
	<path class="st0" d="M64.5,278.3c-7.7-13.3-3.1-30.4,10.2-38.1c13.3-7.7,30.4-3.1,38.1,10.2c7.7,13.3,3.1,30.4-10.2,38.1
		C89.2,296.2,72.2,291.6,64.5,278.3"/>
	<path class="st0" d="M287.2,149.6c-7.7-13.3-3.1-30.4,10.2-38.1c13.3-7.7,30.4-3.1,38.1,10.2c7.7,13.3,3.1,30.4-10.2,38.1
		C312,167.5,294.9,163,287.2,149.6"/>
	<path class="st0" d="M200,356.5c-15.4,0-27.9-12.5-27.9-27.9c0-15.4,12.5-27.9,27.9-27.9s27.9,12.5,27.9,27.9
		C227.9,344,215.4,356.5,200,356.5"/>
	<path class="st0" d="M200,99.3c-15.4,0-27.9-12.5-27.9-27.9s12.5-27.9,27.9-27.9s27.9,12.5,27.9,27.9S215.4,99.3,200,99.3"/>
</g>
</svg>
