<?xml version="1.0" encoding="utf-8"?>
<!-- Generator: Adobe Illustrator 22.0.1, SVG Export Plug-In . SVG Version: 6.00 Build 0)  -->
<svg version="1.1" id="Layer_1" xmlns="http://www.w3.org/2000/svg" xmlns:xlink="http://www.w3.org/1999/xlink" x="0px" y="0px"
	 viewBox="0 0 2500 2500" style="enable-background:new 0 0 2500 2500;" xml:space="preserve">
<style type="text/css">
	.st0{fill:#E44D26;}
	.st1{fill:#F16529;}
	.st2{fill:#EBEBEB;}
	.st3{fill:#FFFFFF;}
</style>
<g>
	<path class="st0" d="M1940.4,658.5l-125.8,1409.2l-565.4,156.8L685.3,2068L559.6,658.5H1940.4L1940.4,658.5z"/>
	<path class="st1" d="M1250,2104.7l456.9-126.7l107.5-1204.2H1250V2104.7z"/>
	<path class="st2" d="M1005.5,1119.5H1250V946.6H816.5l4.1,46.4l42.5,476.4H1250v-172.9h-228.7L1005.5,1119.5z M1044.4,1555.8H870.9
		l24.2,271.4l354.1,98.3l0.8-0.2v-179.8l-0.8,0.2l-192.5-52L1044.4,1555.8L1044.4,1555.8z"/>
	<path d="M688.1,275.5h87.8v86.8h80.4v-86.8h87.9v262.8h-87.8v-88h-80.4v88h-87.8L688.1,275.5L688.1,275.5z M1059.6,362.7h-77.3
		v-87.2h242.6v87.2h-77.4v175.7h-87.8L1059.6,362.7L1059.6,362.7L1059.6,362.7z M1263.4,275.5h91.6l56.3,92.3l56.3-92.3h91.6v262.8
		h-87.5V408.1l-60.4,93.4h-1.5l-60.5-93.4v130.3h-86V275.5z M1603,275.5h87.9v176h123.5v86.9h-211.4L1603,275.5L1603,275.5z"/>
	<path class="st3" d="M1249.4,1469.4h212.9l-20.1,224.2l-192.8,52v179.8l354.4-98.2l2.6-29.2l40.6-455.1l4.2-46.4h-401.8V1469.4
		L1249.4,1469.4z M1249.4,1119.1v0.4h417.5l3.5-38.9l7.9-87.6l4.1-46.4h-433V1119.1L1249.4,1119.1z"/>
</g>
</svg>
