<?xml version="1.0" encoding="utf-8"?>
<!-- Generator: Adobe Illustrator 22.0.1, SVG Export Plug-In . SVG Version: 6.00 Build 0)  -->
<svg version="1.1"
	 id="svg2" inkscape:version="0.48.4 r9939" sodipodi:docname="Logo_MySQL.svg" xmlns:cc="http://creativecommons.org/ns#" xmlns:dc="http://purl.org/dc/elements/1.1/" xmlns:inkscape="http://www.inkscape.org/namespaces/inkscape" xmlns:rdf="http://www.w3.org/1999/02/22-rdf-syntax-ns#" xmlns:sodipodi="http://sodipodi.sourceforge.net/DTD/sodipodi-0.dtd" xmlns:svg="http://www.w3.org/2000/svg"
	 xmlns="http://www.w3.org/2000/svg" xmlns:xlink="http://www.w3.org/1999/xlink" x="0px" y="0px" viewBox="0 0 300 300"
	 style="enable-background:new 0 0 300 300;" xml:space="preserve">
<style type="text/css">
	.st0{fill:#F0F4F8;}
	.st1{fill:#00546B;}
</style>
<g>
	<g>
		<g>
			<g>
				<circle class="st0" cx="150" cy="150" r="103.1"/>
			</g>
		</g>
	</g>
</g>
<sodipodi:namedview  bordercolor="#666666" borderopacity="1" fit-margin-bottom="0" fit-margin-left="0" fit-margin-right="0" fit-margin-top="0" gridtolerance="10" guidetolerance="10" id="namedview14" inkscape:current-layer="svg2" inkscape:cx="317.73483" inkscape:cy="242.88028" inkscape:pageopacity="0" inkscape:pageshadow="2" inkscape:window-height="1017" inkscape:window-maximized="1" inkscape:window-width="1920" inkscape:window-x="-8" inkscape:window-y="-8" inkscape:zoom="0.60235022" objecttolerance="10" pagecolor="#ffffff" showgrid="false">
	</sodipodi:namedview>
<g id="g3001" transform="translate(230.46016,6.4962049)">
	<path id="path16" inkscape:connector-curvature="0" class="st1" d="M-29.5,176c-6.6-0.2-11.7,0.5-16,2.3c-1.2,0.5-3.2,0.5-3.4,2.1
		c0.7,0.7,0.7,1.7,1.3,2.6c1,1.6,2.7,3.9,4.3,5c1.7,1.3,3.5,2.6,5.3,3.8c3.2,2,6.8,3.1,10,5.1c1.8,1.2,3.6,2.6,5.4,3.9
		c0.9,0.7,1.5,1.7,2.6,2.1c0-0.1,0-0.2,0-0.2c-0.6-0.7-0.7-1.8-1.3-2.6c-0.8-0.8-1.6-1.6-2.5-2.4c-2.4-3.2-5.4-6-8.6-8.3
		c-2.6-1.8-8.4-4.3-9.5-7.3c0,0-0.1-0.1-0.2-0.2c1.8-0.2,4-0.8,5.7-1.3c2.8-0.7,5.4-0.6,8.2-1.3c1.3-0.3,2.6-0.7,4-1.2
		c0-0.2,0-0.5,0-0.7c-1.5-1.5-2.6-3.5-4.1-4.9c-4.2-3.6-8.8-7.2-13.6-10.1c-2.6-1.6-5.8-2.7-8.6-4.1c-1-0.5-2.6-0.7-3.2-1.6
		c-1.5-1.8-2.3-4.2-3.4-6.3c-2.4-4.5-4.7-9.6-6.8-14.3c-1.5-3.2-2.4-6.4-4.2-9.4c-8.5-14-17.7-22.5-31.9-30.8
		c-3-1.7-6.7-2.5-10.5-3.4c-2.1-0.1-4.1-0.2-6.2-0.3c-1.3-0.6-2.6-2.1-3.8-2.9c-4.7-3-16.8-9.4-20.3-0.9c-2.2,5.4,3.3,10.6,5.2,13.3
		c1.4,1.9,3.2,4,4.2,6.2c0.6,1.4,0.7,2.9,1.3,4.4c1.3,3.6,2.6,7.7,4.3,11c0.9,1.7,1.9,3.5,3,5.1c0.7,0.9,1.8,1.3,2.1,2.8
		c-1.2,1.6-1.2,4.1-1.9,6.2c-3,9.3-1.8,20.8,2.4,27.7c1.3,2.1,4.4,6.6,8.6,4.9c3.7-1.5,2.9-6.2,4-10.3c0.2-1,0.1-1.6,0.6-2.3
		c0,0.1,0,0.2,0,0.2c1.2,2.3,2.3,4.5,3.4,6.8c2.6,4,7,8.2,10.7,11c2,1.5,3.5,4,6,4.9c0-0.1,0-0.2,0-0.2c-0.1,0-0.1,0-0.2,0
		c-0.5-0.7-1.2-1.1-1.9-1.6c-1.5-1.5-3.1-3.3-4.3-4.9c-3.5-4.6-6.5-9.7-9.2-15c-1.3-2.6-2.5-5.4-3.5-7.9c-0.5-1-0.5-2.5-1.3-3
		c-1.2,1.8-3,3.4-4,5.6c-1.6,3.5-1.7,7.9-2.3,12.4c-0.3,0.1-0.2,0-0.3,0.2c-2.6-0.7-3.5-3.4-4.5-5.7c-2.5-5.8-2.9-15.2-0.7-22
		c0.6-1.7,3-7.2,2.1-8.8c-0.5-1.6-2.1-2.5-3-3.7c-1.1-1.6-2.2-3.5-3-5.3c-2-4.6-3-9.7-5.1-14.3c-1-2.1-2.7-4.4-4.1-6.3
		c-1.6-2.2-3.3-3.8-4.5-6.4c-0.4-0.9-1-2.4-0.3-3.4c0.2-0.7,0.5-0.9,1.2-1.1c1.1-0.9,4.1,0.2,5.2,0.7c3,1.2,5.6,2.4,8.2,4.1
		c1.2,0.8,2.4,2.4,3.9,2.8c0.6,0,1.2,0,1.7,0c2.6,0.6,5.6,0.2,8.1,0.9c4.4,1.4,8.3,3.5,11.9,5.7c10.8,6.8,19.7,16.6,25.7,28.2
		c1,1.9,1.4,3.6,2.3,5.6c1.7,4,3.9,8.2,5.6,12.1c1.7,3.9,3.4,7.8,5.8,11c1.2,1.7,6.2,2.6,8.4,3.5c1.6,0.7,4.2,1.4,5.7,2.3
		c2.8,1.7,5.6,3.7,8.2,5.6C-33.8,172.3-29.7,174.4-29.5,176L-29.5,176L-29.5,176z"/>
	<path id="path18" inkscape:connector-curvature="0" class="st1" d="M-113.5,104.4c-1.4,0-2.4,0.2-3.4,0.4c0,0,0,0.1,0,0.2
		c0.1,0,0.1,0,0.2,0c0.7,1.3,1.8,2.2,2.6,3.4c0.7,1.3,1.2,2.6,1.9,4c0.1-0.1,0.2-0.2,0.2-0.2c1.2-0.8,1.7-2.1,1.7-4.1
		c-0.5-0.6-0.6-1.2-1-1.7C-111.7,105.5-112.8,105.1-113.5,104.4C-113.5,104.4-113.5,104.4-113.5,104.4z"/>
</g>
</svg>
