<?xml version="1.0" encoding="utf-8"?>
<!-- Generator: Adobe Illustrator 22.0.1, SVG Export Plug-In . SVG Version: 6.00 Build 0)  -->
<svg version="1.1" id="Layer_1" xmlns="http://www.w3.org/2000/svg" xmlns:xlink="http://www.w3.org/1999/xlink" x="0px" y="0px"
	 viewBox="0 0 2270 2500" style="enable-background:new 0 0 2270 2500;" xml:space="preserve">
<style type="text/css">
	.st0{fill:#292929;}
	.st1{fill:#8CC84B;}
</style>
<g>
	<g>
		<g>
			<g>
				<circle class="st0" cx="1135" cy="1250" r="910.6"/>
			</g>
		</g>
	</g>
</g>
<g>
	<path class="st1" d="M1094.1,761.4c24.8-14.2,57-14.2,81.7,0c124.5,70.3,249,140.5,373.4,210.9c23.4,13.2,39.1,39.2,38.8,66.2
		v423.1c0.2,28.1-17,54.8-41.7,67.6c-124,69.9-248,140-372.1,209.9c-25.3,14.4-58.2,13.3-82.7-2.3c-37.2-21.6-74.4-43-111.6-64.5
		c-7.6-4.5-16.2-8.1-21.5-15.5c4.7-6.4,13.2-7.2,20.1-10c15.5-4.9,29.8-12.9,44-20.5c3.6-2.5,8-1.5,11.5,0.7
		c31.8,18.2,63.3,37,95.2,55.1c6.8,3.9,13.7-1.3,19.5-4.5c121.7-68.8,243.6-137.3,365.3-206.2c4.5-2.2,7-7,6.6-11.9
		c0.1-139.6,0-279.2,0-418.7c0.5-5.6-2.7-10.8-7.8-13.1c-123.6-69.6-247.2-139.3-370.8-209c-4.4-3-10.2-3-14.6,0
		C1004.1,888.2,880.6,958,757,1027.7c-5.1,2.3-8.4,7.4-7.8,13c0,139.6,0,279.2,0,418.8c-0.4,4.9,2.2,9.6,6.7,11.7
		c33,18.7,66,37.3,99,55.9c18.6,10,41.4,16,61.9,8.3c18.1-6.5,30.7-24.9,30.4-44.1c0.2-138.8-0.1-277.5,0.1-416.3
		c-0.5-6.2,5.4-11.2,11.4-10.7c15.8-0.1,31.7-0.2,47.6,0c6.6-0.1,11.2,6.5,10.3,12.7c-0.1,139.6,0.2,279.3-0.1,418.9
		c0,37.2-15.2,77.7-49.7,95.9c-42.4,22-94.8,17.3-136.7-3.8c-36.3-18.1-70.9-39.5-106.5-58.9c-24.8-12.8-41.9-39.6-41.7-67.7v-423.1
		c-0.3-27.5,16-54,40.2-67C846.1,901.4,970.1,831.4,1094.1,761.4z"/>
	<path class="st1" d="M1202.3,1054.5c54.1-3.5,112-2.1,160.7,24.6c37.7,20.4,58.6,63.3,59.2,105.2c-1.1,5.6-7,8.8-12.3,8.4
		c-15.7,0-31.4,0.2-47.1-0.1c-6.7,0.3-10.5-5.9-11.4-11.8c-4.5-20-15.4-39.9-34.3-49.5c-28.9-14.5-62.5-13.8-94.1-13.5
		c-23,1.2-47.8,3.2-67.3,16.8c-15,10.3-19.5,31-14.2,47.7c5,12,18.9,15.8,30.2,19.4c65.2,17,134.3,15.4,198.2,37.8
		c26.5,9.1,52.4,26.9,61.4,54.6c11.9,37.2,6.7,81.6-19.8,111.4c-21.4,24.5-52.7,37.9-83.8,45.2c-41.4,9.2-84.4,9.5-126.5,5.4
		c-39.6-4.5-80.7-14.9-111.3-41.9c-26.1-22.7-38.9-58-37.6-92.1c0.3-5.8,6-9.8,11.6-9.3c15.8-0.1,31.6-0.2,47.4,0
		c6.3-0.5,11,5,11.3,11c2.9,19.1,10.1,39.1,26.7,50.4c32.1,20.7,72.4,19.3,109.2,19.9c30.5-1.4,64.7-1.8,89.5-21.9
		c13.1-11.5,17-30.7,13.5-47.2c-3.8-14-18.4-20.5-31-24.7c-64.4-20.4-134.2-13-197.9-36c-25.9-9.1-50.9-26.4-60.8-53
		c-13.9-37.6-7.5-84.2,21.7-113C1122.1,1069.4,1163.2,1058.4,1202.3,1054.5L1202.3,1054.5z"/>
</g>
</svg>
