<?xml version="1.0" encoding="utf-8"?>
<!-- Generator: Adobe Illustrator 22.0.1, SVG Export Plug-In . SVG Version: 6.00 Build 0)  -->
<svg version="1.1" id="Layer_1" xmlns="http://www.w3.org/2000/svg" xmlns:xlink="http://www.w3.org/1999/xlink" x="0px" y="0px"
	 viewBox="0 0 250 250" style="enable-background:new 0 0 250 250;" xml:space="preserve">
<style type="text/css">
	.st0{fill:#9C27B0;}
	.st1{fill:#7B1FA2;}
	.st2{fill:#FFFFFF;}
	.st3{opacity:0.8;fill:#FFFFFF;enable-background:new    ;}
</style>
<title>pwa</title>
<g id="Layer_2_1_">
	<g id="Layer_1-2">
		<polygon class="st0" points="124.8,25 124.8,25 124.8,25 32,58.3 46,181.1 124.8,225 124.8,225 124.8,225 203.7,181.1 218,58.3 		
			"/>
		<polygon class="st1" points="124.8,25 124.8,47.2 124.8,47.2 124.8,148.2 124.8,148.2 124.8,225 124.8,225 203.7,181.1 218,58.3 
					"/>
		<path class="st2" d="M155.2,140.4l3.7-9.3h10.7l-5.1-14.1l6.4-16l18.1,48h-13.4l-3.1-8.6H155.2z"/>
		<path class="st3" d="M143.8,149l19.4-48h-12.8l-13.3,31l-9.5-31h-9.9l-10.1,31l-7.2-14.1l-6.5,19.9l6.6,11.2h12.7l9.1-27.8
			l8.8,27.8H143.8z"/>
		<path class="st2" d="M73.2,132.5h8c2.2,0.1,4.3-0.2,6.4-0.8l2.1-6.3l5.7-17.6c-0.4-0.7-0.9-1.3-1.5-1.9c-3-3.3-7.3-4.9-12.9-4.9
			H61v48h12.2V132.5z M83.7,112c1.2,1.2,1.9,3,1.8,4.7c0.1,1.7-0.4,3.3-1.5,4.6c-1.2,1.3-3.2,1.9-6.2,1.9h-4.6v-12.9h4.7
			C80.6,110.3,82.6,110.9,83.7,112z"/>
	</g>
</g>
</svg>
