<?xml version="1.0" ?><svg id="Lager_1" style="enable-background:new 0 0 128 128;" version="1.1" viewBox="0 0 128 128" xml:space="preserve" xmlns="http://www.w3.org/2000/svg" xmlns:xlink="http://www.w3.org/1999/xlink"><style type="text/css">
	.st0{fill:#292929;}
	.st1{fill:#00DBFC;}
</style><g><g><g><g><circle class="st0" cx="64" cy="64" r="50"/></g></g></g></g><g><circle class="st1" cx="64" cy="63.9" r="5.5"/><path class="st1" d="M91.6,58.5c-1.9-1.6-4.6-3-7.8-4.1c-0.6-0.2-1.3-0.4-2-0.6c0.1-0.5,0.2-0.9,0.3-1.4c1.5-7.4,0.4-13.2-2.8-15.1   c-1.6-0.9-3.8-0.9-6.3,0c-2.3,0.9-4.9,2.5-7.4,4.7c-0.5,0.4-1,0.9-1.5,1.4c-0.3-0.3-0.7-0.6-1-0.9c-5.6-5-11.2-7-14.5-5.1   c-1.6,0.9-2.7,2.8-3.2,5.5c-0.4,2.4-0.3,5.5,0.4,8.8c0.1,0.7,0.3,1.3,0.5,2c-0.8,0.2-1.6,0.5-2.3,0.7c-6.7,2.3-10.7,5.9-10.7,9.5   c0,1.9,1.1,3.9,3.2,5.6c2,1.7,4.8,3.2,8,4.3c0.5,0.2,1.1,0.4,1.7,0.5c-0.2,0.7-0.3,1.5-0.5,2.2c-1.3,6.9-0.2,12.2,2.9,14   c0.8,0.5,1.8,0.7,2.9,0.7c1.1,0,2.3-0.2,3.6-0.7c2.5-0.9,5.1-2.5,7.7-4.8c0.4-0.4,0.9-0.8,1.3-1.2c0.6,0.5,1.1,1,1.7,1.5   c3.9,3.4,7.7,5.2,10.7,5.2c1.1,0,2.1-0.2,2.9-0.7c1.6-1,2.8-2.9,3.3-5.6c0.5-2.6,0.4-5.7-0.3-9.1c-0.1-0.5-0.2-1.1-0.4-1.6   c0.4-0.1,0.8-0.2,1.1-0.4c7.2-2.4,11.6-6.2,11.6-10C94.7,62.1,93.6,60.2,91.6,58.5z M73.9,39.8c1.8-0.6,3.2-0.7,4.1-0.2   c1.8,1,3,5.3,1.6,12.3c-0.1,0.4-0.2,0.8-0.3,1.2c-2.6-0.6-5.3-1-8.2-1.3c-1.7-2.4-3.4-4.6-5.2-6.5c0.5-0.5,0.9-0.9,1.4-1.3   C69.6,42,71.9,40.6,73.9,39.8z M72.6,69c-1,1.7-1.9,3.3-2.9,4.7c-1.8,0.1-3.7,0.2-5.6,0.2c-1.9,0-3.8-0.1-5.6-0.2   c-1-1.5-2.1-3.1-3-4.8c-1-1.6-1.8-3.3-2.6-5c0.8-1.7,1.7-3.3,2.6-4.9l0,0c1-1.6,2-3.2,3-4.8c1.8-0.1,3.7-0.2,5.6-0.2   c1.9,0,3.8,0.1,5.6,0.2c1,1.5,2,3.1,3,4.7c1,1.7,1.9,3.3,2.7,4.9C74.4,65.6,73.6,67.3,72.6,69z M76.6,67c0.8,1.9,1.5,3.7,2.1,5.4   c-1.8,0.4-3.7,0.7-5.7,1c0.6-1,1.3-2.1,1.9-3.1C75.5,69.2,76.1,68.1,76.6,67z M64.1,80.9c-1.2-1.3-2.5-2.8-3.7-4.4   c1.2,0,2.4,0.1,3.6,0.1c1.3,0,2.5,0,3.7-0.1C66.5,78.1,65.3,79.6,64.1,80.9z M55.1,73.4c-2-0.2-3.9-0.5-5.7-0.9   c0.5-1.8,1.2-3.6,2-5.4c0.6,1.1,1.1,2.1,1.7,3.2C53.8,71.4,54.4,72.4,55.1,73.4z M53.2,57.7c-0.6,1.1-1.2,2.1-1.7,3.2   c-0.8-1.8-1.4-3.6-2-5.3c1.8-0.4,3.6-0.7,5.6-1C54.4,55.6,53.8,56.7,53.2,57.7z M64,47.2c1.2,1.3,2.4,2.8,3.6,4.4   c-1.2-0.1-2.4-0.1-3.7-0.1c-1.2,0-2.4,0-3.6,0.1C61.6,50,62.8,48.5,64,47.2z M74.8,57.7c-0.6-1.1-1.2-2.1-1.9-3.1   c2,0.2,3.8,0.6,5.6,1c-0.5,1.7-1.2,3.5-2,5.3C76.1,59.9,75.5,58.8,74.8,57.7z M48.3,51.2c-0.6-3-0.7-5.7-0.3-7.8   c0.3-1.8,1-3.1,1.9-3.7c1.8-1,6.1,0,11.4,4.8c0.3,0.3,0.6,0.6,0.9,0.9c-1.8,1.9-3.5,4.1-5.2,6.5c-2.9,0.3-5.7,0.7-8.2,1.3   C48.6,52.4,48.5,51.8,48.3,51.2z M45.4,71.4c-6.5-2.2-9.5-5.4-9.5-7.5c0-2,2.8-4.9,8.9-7c0.7-0.2,1.4-0.5,2.1-0.7   c0.8,2.5,1.8,5.1,3,7.8c-1.2,2.7-2.3,5.3-3,7.9C46.4,71.7,45.9,71.6,45.4,71.4z M51.5,88.7c-0.7,0-1.2-0.1-1.6-0.4   c-1.7-1-2.9-4.8-1.6-11.2c0.1-0.7,0.3-1.3,0.4-2c2.5,0.6,5.3,1,8.3,1.2c1.7,2.4,3.5,4.6,5.3,6.5c-0.4,0.4-0.8,0.7-1.2,1.1   C57.2,87.3,53.7,88.7,51.5,88.7z M79.8,76.4c1.3,6.7,0,10.9-1.7,11.9c-1.7,1-5.6,0.1-10.5-4.2c-0.5-0.4-1-0.9-1.5-1.4   c1.7-1.9,3.5-4.1,5.2-6.5c3-0.3,5.8-0.7,8.3-1.3C79.6,75.4,79.7,75.9,79.8,76.4z M82.3,71.4c-0.3,0.1-0.7,0.2-1,0.3   c-0.8-2.4-1.8-5.1-3.1-7.8c1.2-2.6,2.2-5.2,3-7.7c0.6,0.2,1.2,0.4,1.8,0.6c2.9,1,5.3,2.3,6.9,3.6c1.4,1.2,2.2,2.4,2.2,3.5   C92.1,66,89,69.2,82.3,71.4z"/></g></svg>