<?xml version="1.0" encoding="utf-8"?>
<!-- Generator: Adobe Illustrator 22.0.1, SVG Export Plug-In . SVG Version: 6.00 Build 0)  -->
<svg version="1.1" id="Layer_1" xmlns="http://www.w3.org/2000/svg" xmlns:xlink="http://www.w3.org/1999/xlink" x="0px" y="0px"
	 viewBox="0 0 256 256" style="enable-background:new 0 0 256 256;" xml:space="preserve">
<style type="text/css">
	.st0{fill:#292929;}
	.st1{fill:#EEB545;}
	.st2{fill:#42AADF;}
	.st3{fill:#ED042B;}
	.st4{fill:#2EA757;}
	.st5{fill:#596778;}
</style>
<g>
	<path class="st0" d="M128,33.3c52.3,0,94.7,42.4,94.7,94.7s-42.4,94.7-94.7,94.7S33.3,180.3,33.3,128S75.7,33.3,128,33.3"/>
	<g transform="translate(59.500000, 61.000258)">
		<path class="st1" d="M10.6,104l20.9-7c3.4-1.1,6.7,2.1,5.5,5.5l-7,21c-0.9,2.8-4.5,3.6-6.6,1.5L9,110.6C7,108.5,7.8,105,10.6,104"
			/>
		<path class="st2" d="M30.5,10.4l6.7,21c1.1,3.4-2.2,6.6-5.6,5.4l-20.9-7.3c-2.8-1-3.6-4.5-1.4-6.6L24,8.8
			C26.1,6.7,29.6,7.6,30.5,10.4"/>
		<path class="st3" d="M106.8,123.5l-7-21c-1.1-3.4,2.1-6.7,5.5-5.5l20.9,7c2.8,0.9,3.6,4.5,1.5,6.5l-14.5,14.5
			C111.3,127.2,107.8,126.3,106.8,123.5"/>
		<path class="st4" d="M99.9,31.4l7-21c0.9-2.8,4.5-3.6,6.6-1.5l14.5,14.5c2.1,2.1,1.2,5.6-1.5,6.5l-20.9,7
			C102,38.1,98.7,34.9,99.9,31.4"/>
	</g>
	<g transform="translate(101.000000, 101.000258)">
		<path class="st5" d="M44.1,43.7c9.2-9.2,9.2-24.1,0-33.3c-9.2-9.2-24.1-9.2-33.3,0c-9.2,9.2-9.2,24.1,0,33.3
			C19.9,52.9,34.9,52.9,44.1,43.7L44.1,43.7z M15.4,31.8c-2.6-2.6-2.6-6.9,0-9.6l7.2-7.2c2.6-2.6,6.9-2.6,9.6,0l7.2,7.2
			c2.6,2.6,2.6,6.9,0,9.6L32.2,39c-2.6,2.6-6.9,2.6-9.6,0L15.4,31.8L15.4,31.8z"/>
		<path class="st4" d="M44,15.2c0,1.9-1.5,3.5-3.5,3.5S37,17.1,37,15.2c0-1.9,1.5-3.5,3.5-3.5S44,13.3,44,15.2"/>
		<path class="st3" d="M44,39.1c0,1.9-1.5,3.5-3.5,3.5S37,41,37,39.1c0-1.9,1.5-3.5,3.5-3.5S44,37.1,44,39.1"/>
		<path class="st2" d="M17.9,15.2c0,1.9-1.5,3.5-3.5,3.5c-1.9,0-3.5-1.5-3.5-3.5c0-1.9,1.5-3.5,3.5-3.5
			C16.4,11.7,17.9,13.3,17.9,15.2"/>
		<path class="st1" d="M17.9,39.1c0,1.9-1.5,3.5-3.5,3.5c-1.9,0-3.5-1.5-3.5-3.5c0-1.9,1.5-3.5,3.5-3.5
			C16.4,35.6,17.9,37.1,17.9,39.1"/>
	</g>
</g>
</svg>
